<?xml version="1.0" encoding="utf-8"?>
<!-- Generator: Adobe Illustrator 22.1.0, SVG Export Plug-In . SVG Version: 6.00 Build 0)  -->
<svg version="1.1" id="Layer_1" focusable="false" xmlns="http://www.w3.org/2000/svg" xmlns:xlink="http://www.w3.org/1999/xlink"
	 x="0px" y="0px" viewBox="0 0 448 448" style="enable-background:new 0 0 448 448;" xml:space="preserve">
<style type="text/css">
	.st0{fill:#FFFFFF;}
</style>
<path class="st0" d="M0,0c477.6,0,366.6,317.3,367.1,366.3L448,448h-26l-70.4-71.2c-39,4.2-124.4,34.5-214.4-37
	C47,268.3,52,182.7,0,0z M79.7,46c-49.7-23.5-5.2,9.2-5.2,9.2c45.2,31.2,66,73.7,90.2,119.9c31.5,60.2,79,139.7,144.2,167.7
	c65,28,34.2,12.5,6-8.5c-28.2-21.2-68.2-87-91-130.2C192.2,144.1,162.9,85.5,79.7,46L79.7,46z"/>
</svg>
