<svg xmlns="http://www.w3.org/2000/svg" width="816.22" height="269.312" viewBox="0 0 816.22 269.312">
  <g id="Raggruppa_41" data-name="Raggruppa 41" transform="translate(-560.99 -4798.405)">
    <path id="Tracciato_77" data-name="Tracciato 77" d="M-422.041,568.97c-21.371,0-33.639-13.684-28.113-34.3l16.575-61.86c5.475-20.431,25.127-34.3,46.5-34.3,20.621,0,29.8,13.309,24.63,32.617l-4.42,16.5h-25.308l4.521-16.87c1.155-4.311-.8-7.5-6.052-7.5a9.778,9.778,0,0,0-9.883,7.5l-17.681,65.983c-1.155,4.312.616,7.5,5.865,7.5a9.994,9.994,0,0,0,10.069-7.5l4.521-16.871h25.308l-4.419,16.5C-385.155,555.849-401.42,568.97-422.041,568.97Z" transform="translate(1378.936 4359.902)" fill="#fff"/>
    <path id="Tracciato_78" data-name="Tracciato 78" d="M-343,565.954l3.148-18.745h-17.06l-7.648,18.745h-26.057l55.2-124.843h33.37l-12.081,124.843Zm13.53-85.477L-348,525.84h11.249Z" transform="translate(1383.694 4360.106)" fill="#fff"/>
    <path id="Tracciato_79" data-name="Tracciato 79" d="M-265.4,565.954c-4.5,0-3.836-10.872-1.575-19.307l6.127-22.869c.854-3.187-.153-7.123-4.277-7.123h-6.562l-13.21,49.3h-28.87l33.453-124.843h40.492c14.059,0,25.234,9.373,20.713,26.244l-5.825,21.745c-1.658,6.186-7.59,12.934-16.043,16.494,6.545,3.562,9.473,10.123,7.714,16.684l-6.127,22.869a62.826,62.826,0,0,0-1.863,20.246l-.15.562Zm18.268-96.163c1.156-4.313-.08-6-3.267-6h-7.124l-8.638,32.24h7.124c3.187,0,5.326-1.685,6.481-6Z" transform="translate(1389.702 4360.106)" fill="#fff"/>
    <path id="Tracciato_80" data-name="Tracciato 80" d="M-202.972,565.954h-36.556l33.452-124.843h36.556c20.809,0,31.253,13.5,25.878,33.554l-16.072,59.985C-165.09,554.708-182.164,565.954-202.972,565.954Zm30.561-91.664c1.657-6.186.073-9.372-5.55-9.372h-5.625l-20.743,77.417h5.624c5.625,0,8.965-3.375,10.623-9.56Z" transform="translate(1395.506 4360.106)" fill="#fff"/>
    <path id="Tracciato_81" data-name="Tracciato 81" d="M-163.029,565.954l33.452-124.843h28.869l-33.45,124.843Z" transform="translate(1401.486 4360.106)" fill="#fff"/>
    <path id="Tracciato_82" data-name="Tracciato 82" d="M-91.061,568.956c-20.435,0-32.666-13.121-27.442-32.617l17.479-65.233c5.173-19.308,24.436-32.429,44.87-32.429,20.246,0,32.478,13.121,27.3,32.429l-17.478,65.233C-51.551,555.835-70.815,568.956-91.061,568.956Zm33.233-99.537c1.054-3.936-1.343-6.186-4.9-6.186a8.668,8.668,0,0,0-8.407,6.186l-18.383,68.608c-1.054,3.936,1.53,6.186,5.091,6.186a8.45,8.45,0,0,0,8.219-6.186Z" transform="translate(1404.873 4359.916)" fill="#fff"/>
    <path id="Tracciato_83" data-name="Tracciato 83" d="M-735.231,592.945l-7.334,27.367h21l-6.178,23.057h-21L-762.5,694.732h-28.869l33.451-124.843h59.239l-6.178,23.056Z" transform="translate(1352.364 4370.174)" fill="#fff"/>
    <path id="Tracciato_84" data-name="Tracciato 84" d="M-729.3,694.732l33.453-124.843h28.869l-33.452,124.843Z" transform="translate(1357.217 4370.174)" fill="#fff"/>
    <path id="Tracciato_85" data-name="Tracciato 85" d="M-621.107,594.632l-26.821,100.1H-676.8l26.822-100.1h-20.247l6.631-24.743h69.55l-6.63,24.743Z" transform="translate(1361.322 4370.174)" fill="#fff"/>
    <path id="Tracciato_86" data-name="Tracciato 86" d="M-573.878,694.732l-5.315-45.928-2.4-17.62-17.028,63.548h-25.495l33.452-124.843h25.5l4.04,46.488,1.977,17.806,17.228-64.294h25.308l-33.452,124.843Z" transform="translate(1365.44 4370.174)" fill="#fff"/>
    <path id="Tracciato_87" data-name="Tracciato 87" d="M-544.488,694.732l33.452-124.843h61.114l-6.479,24.18h-32.245l-6.932,25.869h21l-5.776,21.557h-21l-7.434,27.742h32.245l-6.831,25.5Z" transform="translate(1371.665 4370.174)" fill="#fff"/>
    <path id="Tracciato_88" data-name="Tracciato 88" d="M-448.05,697.733c-21.933,0-32.028-12-26.554-32.429l2.411-9h25.12l-2.411,9c-1.457,5.437.676,9.373,6.3,9.373s9.152-3.374,10.759-9.373c2.361-8.811-3.38-15.37-10.443-23.994-8.736-9.373-18.731-21.745-14.161-38.8,4.871-18.183,21.2-35.056,44.824-35.056,19.121,0,28.527,13.873,23.606,32.242l-2.161,8.061h-25.12l2.411-9c1.356-5.06-.84-8.06-4.964-8.06a10.617,10.617,0,0,0-9.9,8.248c-2.662,9.935,3.48,15,10.631,23.994,8.86,10.311,18.444,22.12,13.723,39.741C-409.25,682.363-426.679,697.733-448.05,697.733Z" transform="translate(1377.014 4369.983)" fill="#fff"/>
    <path id="Tracciato_89" data-name="Tracciato 89" d="M-377.114,697.733c-21.933,0-32.029-12-26.553-32.429l2.41-9h25.121l-2.411,9c-1.457,5.437.676,9.373,6.3,9.373s9.153-3.374,10.76-9.373c2.361-8.811-3.38-15.37-10.443-23.994-8.735-9.373-18.731-21.745-14.161-38.8,4.872-18.183,21.2-35.056,44.824-35.056,19.121,0,28.527,13.873,23.6,32.242l-2.16,8.061h-25.12l2.411-9c1.356-5.06-.84-8.06-4.964-8.06a10.615,10.615,0,0,0-9.9,8.248c-2.662,9.935,3.48,15,10.63,23.994,8.86,10.311,18.444,22.12,13.722,39.741C-338.314,682.363-355.743,697.733-377.114,697.733Z" transform="translate(1382.559 4369.983)" fill="#fff"/>
  </g>
</svg>
