<svg id="Componente_1_1" data-name="Componente 1 – 1" xmlns="http://www.w3.org/2000/svg" width="834.421" height="546.064" viewBox="0 0 834.421 546.064">
  <path id="Tracciato_77" data-name="Tracciato 77" d="M-422.041,568.97c-21.371,0-33.639-13.684-28.113-34.3l16.575-61.86c5.475-20.431,25.127-34.3,46.5-34.3,20.621,0,29.8,13.309,24.63,32.617l-4.42,16.5h-25.308l4.521-16.87c1.155-4.311-.8-7.5-6.052-7.5a9.778,9.778,0,0,0-9.883,7.5l-17.681,65.983c-1.155,4.312.616,7.5,5.865,7.5a9.994,9.994,0,0,0,10.069-7.5l4.521-16.871h25.308l-4.419,16.5C-385.155,555.849-401.42,568.97-422.041,568.97Z" transform="translate(836.147 -438.503)" fill="#fff"/>
  <path id="Tracciato_78" data-name="Tracciato 78" d="M-343,565.954l3.148-18.745h-17.06l-7.648,18.745h-26.057l55.2-124.843h33.37l-12.081,124.843Zm13.53-85.477L-348,525.84h11.249Z" transform="translate(840.905 -438.299)" fill="#fff"/>
  <path id="Tracciato_79" data-name="Tracciato 79" d="M-265.4,565.954c-4.5,0-3.836-10.872-1.575-19.307l6.127-22.869c.854-3.187-.153-7.123-4.277-7.123h-6.562l-13.21,49.3h-28.87l33.453-124.843h40.492c14.059,0,25.234,9.373,20.713,26.244l-5.825,21.745c-1.658,6.186-7.59,12.934-16.043,16.494,6.545,3.562,9.473,10.123,7.714,16.684l-6.127,22.869a62.826,62.826,0,0,0-1.863,20.246l-.15.562Zm18.268-96.163c1.156-4.313-.08-6-3.267-6h-7.124l-8.638,32.24h7.124c3.187,0,5.326-1.685,6.481-6Z" transform="translate(846.913 -438.299)" fill="#fff"/>
  <path id="Tracciato_80" data-name="Tracciato 80" d="M-202.972,565.954h-36.556l33.452-124.843h36.556c20.809,0,31.253,13.5,25.878,33.554l-16.072,59.985C-165.09,554.708-182.164,565.954-202.972,565.954Zm30.561-91.664c1.657-6.186.073-9.372-5.55-9.372h-5.625l-20.743,77.417h5.624c5.625,0,8.965-3.375,10.623-9.56Z" transform="translate(852.716 -438.299)" fill="#fff"/>
  <path id="Tracciato_81" data-name="Tracciato 81" d="M-163.029,565.954l33.452-124.843h28.869l-33.45,124.843Z" transform="translate(858.697 -438.299)" fill="#fff"/>
  <path id="Tracciato_82" data-name="Tracciato 82" d="M-91.061,568.956c-20.435,0-32.666-13.121-27.442-32.617l17.479-65.233c5.173-19.308,24.436-32.429,44.87-32.429,20.246,0,32.478,13.121,27.3,32.429l-17.478,65.233C-51.551,555.835-70.815,568.956-91.061,568.956Zm33.233-99.537c1.054-3.936-1.343-6.186-4.9-6.186a8.668,8.668,0,0,0-8.407,6.186l-18.383,68.608c-1.054,3.936,1.53,6.186,5.091,6.186a8.45,8.45,0,0,0,8.219-6.186Z" transform="translate(862.084 -438.49)" fill="#fff"/>
  <path id="Tracciato_83" data-name="Tracciato 83" d="M-735.231,592.945l-7.334,27.367h21l-6.178,23.057h-21L-762.5,694.732h-28.869l33.451-124.843h59.239l-6.178,23.056Z" transform="translate(809.575 -428.232)" fill="#fff"/>
  <path id="Tracciato_84" data-name="Tracciato 84" d="M-729.3,694.732l33.453-124.843h28.869l-33.452,124.843Z" transform="translate(814.427 -428.232)" fill="#fff"/>
  <path id="Tracciato_85" data-name="Tracciato 85" d="M-621.107,594.632l-26.821,100.1H-676.8l26.822-100.1h-20.247l6.631-24.743h69.55l-6.63,24.743Z" transform="translate(818.532 -428.232)" fill="#fff"/>
  <path id="Tracciato_86" data-name="Tracciato 86" d="M-573.878,694.732l-5.315-45.928-2.4-17.62-17.028,63.548h-25.495l33.452-124.843h25.5l4.04,46.488,1.977,17.806,17.228-64.294h25.308l-33.452,124.843Z" transform="translate(822.65 -428.232)" fill="#fff"/>
  <path id="Tracciato_87" data-name="Tracciato 87" d="M-544.488,694.732l33.452-124.843h61.114l-6.479,24.18h-32.245l-6.932,25.869h21l-5.776,21.557h-21l-7.434,27.742h32.245l-6.831,25.5Z" transform="translate(828.876 -428.232)" fill="#fff"/>
  <path id="Tracciato_88" data-name="Tracciato 88" d="M-448.05,697.733c-21.933,0-32.028-12-26.554-32.429l2.411-9h25.12l-2.411,9c-1.457,5.437.676,9.373,6.3,9.373s9.152-3.374,10.759-9.373c2.361-8.811-3.38-15.37-10.443-23.994-8.736-9.373-18.731-21.745-14.161-38.8,4.871-18.183,21.2-35.056,44.824-35.056,19.121,0,28.527,13.873,23.606,32.242l-2.161,8.061h-25.12l2.411-9c1.356-5.06-.84-8.06-4.964-8.06a10.617,10.617,0,0,0-9.9,8.248c-2.662,9.935,3.48,15,10.631,23.994,8.86,10.311,18.444,22.12,13.723,39.741C-409.25,682.363-426.679,697.733-448.05,697.733Z" transform="translate(834.224 -428.422)" fill="#fff"/>
  <path id="Tracciato_89" data-name="Tracciato 89" d="M-377.114,697.733c-21.933,0-32.029-12-26.553-32.429l2.41-9h25.121l-2.411,9c-1.457,5.437.676,9.373,6.3,9.373s9.153-3.374,10.76-9.373c2.361-8.811-3.38-15.37-10.443-23.994-8.735-9.373-18.731-21.745-14.161-38.8,4.872-18.183,21.2-35.056,44.824-35.056,19.121,0,28.527,13.873,23.6,32.242l-2.16,8.061h-25.12l2.411-9c1.356-5.06-.84-8.06-4.964-8.06a10.615,10.615,0,0,0-9.9,8.248c-2.662,9.935,3.48,15,10.63,23.994,8.86,10.311,18.444,22.12,13.722,39.741C-338.314,682.363-355.743,697.733-377.114,697.733Z" transform="translate(839.77 -428.422)" fill="#fff"/>
  <path id="Tracciato_90" data-name="Tracciato 90" d="M-455.344,711.038l-11.5,42.924h19.683l-3.265,12.185h-19.684l-15.369,57.362h-13.685l33.451-124.843h38.807l-3.315,12.372Z" transform="translate(832.419 -418.164)" fill="#fff"/>
  <path id="Tracciato_91" data-name="Tracciato 91" d="M-454.309,823.509l33.453-124.843h39.743l-3.365,12.559h-26.245l-11.152,41.613h18.935l-3.265,12.185h-18.934l-12.306,45.926H-411.2l-3.365,12.561Z" transform="translate(835.926 -418.164)" fill="#fff"/>
  <path id="Tracciato_92" data-name="Tracciato 92" d="M-407.366,823.509l33.452-124.843h39.743l-3.365,12.559h-26.245l-11.151,41.613H-356l-3.265,12.185H-378.2L-390.5,810.948h26.245l-3.365,12.561Z" transform="translate(839.595 -418.164)" fill="#fff"/>
  <path id="Tracciato_93" data-name="Tracciato 93" d="M-360.424,823.509l33.452-124.843h13.5L-343.46,810.573h25.308l-3.466,12.936Z" transform="translate(843.265 -418.164)" fill="#fff"/>
  <path id="Tracciato_94" data-name="Tracciato 94" d="M-241.1,711.412l-30.037,112.1h-13.31l30.036-112.1h-16.685l3.416-12.746h46.117l-3.415,12.746Z" transform="translate(849.205 -418.164)" fill="#fff"/>
  <path id="Tracciato_95" data-name="Tracciato 95" d="M-213.935,823.509l14.918-55.674H-220.2l-14.918,55.674H-248.8l33.452-124.843h13.685l-15.169,56.611h21.184l15.169-56.611h13.31l-33.452,124.843Z" transform="translate(851.991 -418.164)" fill="#fff"/>
  <path id="Tracciato_96" data-name="Tracciato 96" d="M-191.255,823.509-157.8,698.666h39.743l-3.365,12.559h-26.245l-11.151,41.613h18.935l-3.266,12.185h-18.934l-12.306,45.926h26.246l-3.366,12.561Z" transform="translate(856.49 -418.164)" fill="#fff"/>
  <path id="Tracciato_97" data-name="Tracciato 97" d="M-783.884,952.286h-24.371L-774.8,827.443h24.371c16.122,0,20.158,10.123,15.487,27.555L-753.63,924.73C-758.3,942.164-767.762,952.286-783.884,952.286Zm35.692-98.225c2.511-9.373.8-13.5-6.132-13.5h-10.311l-26.421,98.6h10.312c6.936,0,10.853-4.124,13.313-13.309Z" transform="translate(808.255 -408.097)" fill="#fff"/>
  <path id="Tracciato_98" data-name="Tracciato 98" d="M-752.619,952.286l33.452-124.843h13.685l-33.452,124.843Z" transform="translate(812.605 -408.097)" fill="#fff"/>
  <path id="Tracciato_99" data-name="Tracciato 99" d="M-683.242,839.815l-11.5,42.924h19.684l-3.265,12.185h-19.684l-15.369,57.362h-13.685l33.452-124.843h38.806l-3.314,12.372Z" transform="translate(814.602 -408.097)" fill="#fff"/>
  <path id="Tracciato_100" data-name="Tracciato 100" d="M-638.385,839.815l-11.5,42.924H-630.2l-3.264,12.185H-653.15l-15.37,57.362h-13.685l33.452-124.843h38.806l-3.314,12.372Z" transform="translate(818.109 -408.097)" fill="#fff"/>
  <path id="Tracciato_101" data-name="Tracciato 101" d="M-637.349,952.286-603.9,827.443h39.743L-567.52,840h-26.245l-11.151,41.613h18.935l-3.265,12.186H-608.18l-12.305,45.924h26.245l-3.365,12.561Z" transform="translate(821.616 -408.097)" fill="#fff"/>
  <path id="Tracciato_102" data-name="Tracciato 102" d="M-545.528,953.411c-9,0-11.758-3-8.945-13.5l8.639-32.241c1.708-6.374-.237-10.312-5.861-10.312H-562l-14.717,54.926h-13.685l33.452-124.843h24.746c11.624,0,19.252,5.81,14.782,22.493l-6.38,23.808c-2.46,9.183-6.743,15.37-15.269,17.806,7.033,2.437,8.311,9.561,6.151,17.622l-8.086,30.178c-.9,3.376-.555,4.875,2.068,4.875l-2.46,9.185ZM-530.674,849c1.557-5.812-.077-8.811-5.139-8.811h-10.872l-12.155,45.363h9.748c5.25,0,9.628-3.749,11.387-10.311Z" transform="translate(825.286 -408.097)" fill="#fff"/>
  <path id="Tracciato_103" data-name="Tracciato 103" d="M-535.813,952.286l33.452-124.843h39.743L-465.984,840h-26.245l-11.15,41.613h18.935L-487.71,893.8h-18.934l-12.306,45.924H-492.7l-3.366,12.561Z" transform="translate(829.554 -408.097)" fill="#fff"/>
  <path id="Tracciato_104" data-name="Tracciato 104" d="M-449.114,952.286l-4.258-63.171L-454,869.056l-22.3,83.23h-12.747l33.45-124.843h12.186l2.132,64.107.2,20.246,22.6-84.353h12.747l-33.452,124.843Z" transform="translate(833.21 -408.097)" fill="#fff"/>
  <path id="Tracciato_105" data-name="Tracciato 105" d="M-408.4,954.3c-14.622,0-20.844-11.06-16.926-25.683l20.693-77.229c3.867-14.435,16.067-25.68,30.689-25.68s20.008,10.685,16.14,25.118l-5.474,20.432h-11.811l5.826-21.747c1.658-6.185-.837-10.872-7.584-10.872a13.947,13.947,0,0,0-13.737,10.685l-21.8,81.356c-1.657,6.185.886,10.686,8.01,10.686,6.749,0,11.7-4.5,13.411-10.875l5.877-21.93h11.81l-5.526,20.618C-382.662,943.612-393.773,954.3-408.4,954.3Z" transform="translate(838.102 -408.233)" fill="#fff"/>
  <path id="Tracciato_106" data-name="Tracciato 106" d="M-377.251,952.286-343.8,827.443h39.744L-307.422,840h-26.245l-11.151,41.613h18.935l-3.266,12.186h-18.934l-12.305,45.924h26.244l-3.365,12.561Z" transform="translate(841.95 -408.097)" fill="#fff"/>
</svg>
